<svg width="32" height="32" viewBox="0 0 32 32" fill="none" xmlns="http://www.w3.org/2000/svg">
<path fill-rule="evenodd" clip-rule="evenodd" d="M9.95301 1.42131C11.517 1.34931 12.0157 1.33331 15.9997 1.33331C19.9837 1.33331 20.4823 1.35065 22.045 1.42131C23.6077 1.49198 24.6743 1.74131 25.6077 2.10265C26.585 2.47198 27.4717 3.04931 28.205 3.79598C28.9517 4.52798 29.5277 5.41331 29.8957 6.39198C30.2583 7.32531 30.5063 8.39198 30.5783 9.95198C30.6503 11.5186 30.6663 12.0173 30.6663 16C30.6663 19.984 30.649 20.4826 30.5783 22.0466C30.5077 23.6066 30.2583 24.6733 29.8957 25.6066C29.5277 26.5854 28.9507 27.4722 28.205 28.2053C27.4717 28.952 26.585 29.528 25.6077 29.896C24.6743 30.2586 23.6077 30.5066 22.0477 30.5786C20.4823 30.6506 19.9837 30.6666 15.9997 30.6666C12.0157 30.6666 11.517 30.6493 9.95301 30.5786C8.39301 30.508 7.32634 30.2586 6.39301 29.896C5.41424 29.5279 4.52744 28.951 3.79434 28.2053C3.04818 27.4729 2.47076 26.5865 2.10234 25.608C1.74101 24.6746 1.49301 23.608 1.42101 22.048C1.34901 20.4813 1.33301 19.9826 1.33301 16C1.33301 12.016 1.35034 11.5173 1.42101 9.95465C1.49167 8.39198 1.74101 7.32531 2.10234 6.39198C2.4713 5.41342 3.04917 4.52706 3.79567 3.79465C4.52773 3.04865 5.41364 2.47124 6.39167 2.10265C7.32501 1.74131 8.39167 1.49331 9.95168 1.42131H9.95301ZM21.9263 4.06131C20.3797 3.99065 19.9157 3.97598 15.9997 3.97598C12.0837 3.97598 11.6197 3.99065 10.073 4.06131C8.64234 4.12665 7.86634 4.36531 7.34901 4.56665C6.66501 4.83331 6.17567 5.14931 5.66234 5.66265C5.17573 6.13605 4.80125 6.71236 4.56634 7.34931C4.36501 7.86665 4.12634 8.64265 4.06101 10.0733C3.99034 11.62 3.97567 12.084 3.97567 16C3.97567 19.916 3.99034 20.38 4.06101 21.9266C4.12634 23.3573 4.36501 24.1333 4.56634 24.6506C4.80101 25.2866 5.17567 25.864 5.66234 26.3373C6.13567 26.824 6.71301 27.1986 7.34901 27.4333C7.86634 27.6346 8.64234 27.8733 10.073 27.9386C11.6197 28.0093 12.0823 28.024 15.9997 28.024C19.917 28.024 20.3797 28.0093 21.9263 27.9386C23.357 27.8733 24.133 27.6346 24.6503 27.4333C25.3343 27.1666 25.8237 26.8506 26.337 26.3373C26.8237 25.864 27.1983 25.2866 27.433 24.6506C27.6343 24.1333 27.873 23.3573 27.9383 21.9266C28.009 20.38 28.0237 19.916 28.0237 16C28.0237 12.084 28.009 11.62 27.9383 10.0733C27.873 8.64265 27.6343 7.86665 27.433 7.34931C27.1663 6.66531 26.8503 6.17598 26.337 5.66265C25.8636 5.17607 25.2873 4.80159 24.6503 4.56665C24.133 4.36531 23.357 4.12665 21.9263 4.06131ZM14.1263 20.5213C15.1726 20.9568 16.3375 21.0156 17.4222 20.6876C18.507 20.3596 19.4442 19.6652 20.0738 18.723C20.7034 17.7807 20.9864 16.6491 20.8744 15.5215C20.7624 14.3938 20.2623 13.3399 19.4597 12.54C18.948 12.0286 18.3293 11.6371 17.6481 11.3935C16.9669 11.15 16.2402 11.0605 15.5203 11.1315C14.8004 11.2025 14.1052 11.4322 13.4847 11.8042C12.8643 12.1761 12.334 12.681 11.9321 13.2824C11.5302 13.8839 11.2666 14.567 11.1604 15.2826C11.0541 15.9982 11.1079 16.7284 11.3177 17.4207C11.5276 18.113 11.8883 18.7501 12.374 19.2863C12.8596 19.8224 13.4581 20.2442 14.1263 20.5213ZM10.669 10.6693C11.369 9.96928 12.2001 9.41398 13.1147 9.03513C14.0294 8.65627 15.0097 8.46128 15.9997 8.46128C16.9897 8.46128 17.97 8.65627 18.8846 9.03513C19.7992 9.41398 20.6303 9.96928 21.3303 10.6693C22.0304 11.3693 22.5857 12.2004 22.9645 13.115C23.3434 14.0297 23.5384 15.01 23.5384 16C23.5384 16.99 23.3434 17.9703 22.9645 18.8849C22.5857 19.7996 22.0304 20.6306 21.3303 21.3306C19.9166 22.7444 17.9991 23.5387 15.9997 23.5387C14.0003 23.5387 12.0828 22.7444 10.669 21.3306C9.25523 19.9169 8.46097 17.9994 8.46097 16C8.46097 14.0006 9.25523 12.0831 10.669 10.6693ZM25.2103 9.58398C25.3838 9.42034 25.5227 9.22355 25.6187 9.00528C25.7148 8.787 25.7661 8.55167 25.7696 8.31322C25.773 8.07477 25.7286 7.83804 25.639 7.61706C25.5493 7.39608 25.4163 7.19533 25.2476 7.0267C25.079 6.85807 24.8782 6.72499 24.6573 6.63534C24.4363 6.54568 24.1996 6.50128 23.9611 6.50476C23.7226 6.50823 23.4873 6.55952 23.269 6.65557C23.0508 6.75163 22.854 6.89051 22.6903 7.06398C22.3721 7.40135 22.1978 7.84947 22.2046 8.31322C22.2114 8.77696 22.3986 9.21982 22.7266 9.54777C23.0545 9.87572 23.4974 10.063 23.9611 10.0697C24.4248 10.0765 24.873 9.90223 25.2103 9.58398Z" fill="#D4D3FB"/>
</svg>
