<svg width="32" height="32" viewBox="0 0 32 32" fill="none" xmlns="http://www.w3.org/2000/svg">
<path fill-rule="evenodd" clip-rule="evenodd" d="M1.33301 3.78398C1.33301 3.13403 1.5912 2.51069 2.05079 2.0511C2.51038 1.59151 3.13372 1.33332 3.78367 1.33332H28.213C28.5351 1.33279 28.8541 1.3958 29.1519 1.51874C29.4496 1.64168 29.7201 1.82213 29.948 2.04976C30.1759 2.2774 30.3566 2.54775 30.4799 2.84533C30.6032 3.14291 30.6665 3.46188 30.6663 3.78398V28.2133C30.6667 28.5355 30.6035 28.8545 30.4804 29.1523C30.3573 29.45 30.1768 29.7205 29.949 29.9484C29.7213 30.1763 29.4509 30.357 29.1532 30.4802C28.8555 30.6035 28.5365 30.6668 28.2143 30.6666H3.78367C3.46174 30.6666 3.14295 30.6032 2.84554 30.48C2.54812 30.3567 2.2779 30.1761 2.05032 29.9484C1.82274 29.7207 1.64225 29.4504 1.51917 29.1529C1.39609 28.8554 1.33283 28.5366 1.33301 28.2146V3.78398ZM12.9437 12.5173H16.9157V14.512C17.489 13.3653 18.9557 12.3333 21.1597 12.3333C25.385 12.3333 26.3863 14.6173 26.3863 18.808V26.5706H22.1103V19.7626C22.1103 17.376 21.537 16.0293 20.081 16.0293C18.061 16.0293 17.221 17.4813 17.221 19.7626V26.5706H12.9437V12.5173ZM5.61034 26.388H9.88768V12.3333H5.61034V26.3867V26.388ZM10.4997 7.74932C10.5077 8.11555 10.4426 8.4797 10.308 8.8204C10.1734 9.16111 9.97214 9.4715 9.71598 9.73336C9.45982 9.99522 9.15394 10.2033 8.81628 10.3453C8.47862 10.4874 8.11599 10.5605 7.74968 10.5605C7.38336 10.5605 7.02073 10.4874 6.68307 10.3453C6.34541 10.2033 6.03953 9.99522 5.78337 9.73336C5.52721 9.4715 5.32593 9.16111 5.19136 8.8204C5.05678 8.4797 4.99161 8.11555 4.99967 7.74932C5.0155 7.03046 5.31219 6.34637 5.82619 5.84356C6.34019 5.34076 7.03064 5.05921 7.74968 5.05921C8.46871 5.05921 9.15916 5.34076 9.67316 5.84356C10.1872 6.34637 10.4838 7.03046 10.4997 7.74932Z" fill="#D4D3FB"/>
</svg>
