<svg width="32" height="32" viewBox="0 0 32 32" fill="none" xmlns="http://www.w3.org/2000/svg">
<g clip-path="url(#clip0_38859_1151)">
<path d="M31.3332 8.676C31.152 8.02964 30.799 7.44446 30.3118 6.98267C29.8109 6.50667 29.1969 6.16618 28.5278 5.99333C26.0238 5.33333 15.9918 5.33333 15.9918 5.33333C11.8096 5.28575 7.62842 5.49503 3.47185 5.96C2.80277 6.14562 2.18993 6.49372 1.68785 6.97333C1.19451 7.448 0.83718 8.03333 0.650513 8.67467C0.202104 11.0903 -0.0157643 13.5431 -0.000153652 16C-0.0161537 18.4547 0.20118 20.9067 0.650513 23.3253C0.83318 23.964 1.18918 24.5467 1.68385 25.0173C2.17851 25.488 2.79451 25.828 3.47185 26.008C6.00918 26.6667 15.9918 26.6667 15.9918 26.6667C20.1794 26.7143 24.3659 26.505 28.5278 26.04C29.1969 25.8672 29.8109 25.5267 30.3118 25.0507C30.7989 24.589 31.1514 24.0037 31.3318 23.3573C31.792 20.9426 32.0157 18.4888 31.9998 16.0307C32.0345 13.5621 31.811 11.0968 31.3332 8.67467V8.676ZM12.8025 20.5653V11.436L21.1492 16.0013L12.8025 20.5653Z" fill="#D4D3FB"/>
</g>
<defs>
<clipPath id="clip0_38859_1151">
<rect width="32" height="32" fill="white"/>
</clipPath>
</defs>
</svg>
